<?xml version="1.0" encoding="UTF-8" standalone="no"?>
<!DOCTYPE svg PUBLIC "-//W3C//DTD SVG 1.1//EN" "http://www.w3.org/Graphics/SVG/1.1/DTD/svg11.dtd">
<svg width="100%" height="100%" viewBox="0 0 35 46" version="1.1" xmlns="http://www.w3.org/2000/svg" xmlns:xlink="http://www.w3.org/1999/xlink" xml:space="preserve" xmlns:serif="http://www.serif.com/" style="fill-rule:evenodd;clip-rule:evenodd;stroke-linejoin:round;stroke-miterlimit:2;">
    <g transform="matrix(1,0,0,1,-12,-8.34582)">
        <g id="_4d61e36d-25fe-4d6e-99a8-9bdb9b09f351" serif:id="4d61e36d-25fe-4d6e-99a8-9bdb9b09f351" transform="matrix(0.472612,0,0,0.472612,5.39336,7.4885)">
            <path d="M50.978,97.682L50.115,97.366C16.642,85.06 14.008,52.79 13.985,52.466L13.979,52.291L13.979,5.232L16.048,4.87C16.761,4.745 33.71,1.814 50.977,1.814C68.246,1.814 85.196,4.745 85.909,4.87L87.978,5.232L87.972,52.465C87.95,52.79 85.316,85.06 51.84,97.365L50.978,97.682ZM18.979,52.194C19.143,54.185 21.907,81.155 50.977,92.347C80.037,81.162 82.81,54.218 82.978,52.193L82.978,9.462C77.92,8.684 64.367,6.814 50.977,6.814C37.577,6.814 24.035,8.684 18.979,9.462L18.979,52.194Z" style="fill:url(#_Linear1);fill-rule:nonzero;"/>
        </g>
    </g>
    <defs>
        <linearGradient id="_Linear1" x1="0" y1="0" x2="1" y2="0" gradientUnits="userSpaceOnUse" gradientTransform="matrix(67.0659,40.5156,-40.5156,67.0659,13.979,1.814)"><stop offset="0" style="stop-color:rgb(146,13,233);stop-opacity:1"/><stop offset="1" style="stop-color:rgb(21,54,241);stop-opacity:1"/></linearGradient>
    </defs>
</svg>
