<svg viewBox="0 0 1250 296" xmlns="http://www.w3.org/2000/svg" xml:space="preserve" style="fill-rule:evenodd;clip-rule:evenodd;stroke-linejoin:round;stroke-miterlimit:2"><path d="M368.476 160.085c-1.282 0-1.923-.641-1.923-1.923V83.504c0-1.281.641-1.922 1.923-1.922h27.476c5.607 0 10.52.988 14.739 2.964 4.219 1.976 7.503 4.753 9.853 8.331 2.296 3.631 3.445 7.797 3.445 12.496v30.921c0 4.699-1.149 8.865-3.445 12.496-2.35 3.578-5.634 6.355-9.853 8.331-4.219 1.976-9.132 2.964-14.739 2.964h-27.476zm13.938-14.259c0 .481.214.721.641.721h13.458c3.471 0 6.248-1.175 8.331-3.525 2.136-2.296 3.257-5.393 3.364-9.292v-25.794c0-3.898-1.068-6.995-3.204-9.292-2.136-2.35-4.993-3.524-8.571-3.524h-13.378c-.427 0-.641.24-.641.721v49.985zm107.982-52.549c0 1.228-.641 1.843-1.923 1.843h-36.127c-.427 0-.641.24-.641.721v17.142c0 .427.214.641.641.641h23.471c1.281 0 1.922.641 1.922 1.922v9.773c0 1.282-.641 1.923-1.922 1.923h-23.471c-.427 0-.641.213-.641.641v17.943c0 .481.214.721.641.721h36.127c1.282 0 1.923.614 1.923 1.842v9.773c0 1.282-.641 1.923-1.923 1.923h-50.706c-1.229 0-1.843-.641-1.843-1.923V83.504c0-1.281.614-1.922 1.843-1.922h50.706c1.282 0 1.923.641 1.923 1.922v9.773zm57.675 25.794c-.267.053-.4.187-.4.401 0 .16.133.32.4.48 6.996 3.525 10.494 9.586 10.494 18.184 0 7.209-2.456 12.683-7.37 16.422-4.966 3.684-11.428 5.527-19.385 5.527h-28.517c-1.282 0-1.923-.641-1.923-1.923V83.504c0-1.281.641-1.922 1.923-1.922h27.556c17.73 0 26.595 7.183 26.595 21.548 0 7.53-3.124 12.844-9.373 15.941zM517.872 95.12c-.427 0-.641.24-.641.721v17.222c0 .481.214.721.641.721h12.977c3.524 0 6.275-.828 8.251-2.483 1.922-1.656 2.883-3.899 2.883-6.729 0-2.937-.961-5.234-2.883-6.889-1.976-1.709-4.727-2.563-8.251-2.563h-12.977zm13.938 51.267c3.418 0 6.088-.881 8.011-2.644 1.975-1.762 2.963-4.165 2.963-7.209 0-3.044-.988-5.447-2.963-7.21-1.923-1.762-4.647-2.643-8.171-2.643h-13.778c-.427 0-.641.214-.641.641v18.424c0 .427.214.641.641.641h13.938zm82.588 13.698c-.961 0-1.709-.481-2.243-1.442l-13.778-30.52c-.16-.374-.427-.561-.801-.561h-10.173c-.427 0-.641.214-.641.641v29.959c0 1.282-.641 1.923-1.922 1.923h-12.016c-1.282 0-1.923-.641-1.923-1.923V83.344c0-1.228.641-1.842 1.923-1.842h31.481c4.806 0 9.025.988 12.657 2.964 3.631 1.976 6.435 4.753 8.411 8.331 1.976 3.578 2.964 7.69 2.964 12.336 0 5.073-1.282 9.452-3.845 13.137-2.51 3.631-6.008 6.195-10.494 7.69-.214.107-.374.24-.481.401-.053.213 0 .4.16.56l14.74 30.921c.267.32.4.667.4 1.041 0 .374-.16.668-.48.881-.321.214-.721.321-1.202.321h-12.737zM587.403 95.12c-.427 0-.641.24-.641.721v18.824c0 .427.214.641.641.641h14.579c3.151 0 5.714-.908 7.69-2.723 1.976-1.816 2.964-4.219 2.964-7.21 0-2.991-.988-5.447-2.964-7.37-1.976-1.922-4.539-2.883-7.69-2.883h-14.579zm106.86-1.843c0 1.228-.641 1.843-1.922 1.843h-36.048c-.48 0-.721.24-.721.721v17.142c0 .427.241.641.721.641h23.391c1.282 0 1.922.641 1.922 1.922v9.773c0 1.282-.64 1.923-1.922 1.923h-23.391c-.48 0-.721.213-.721.641v17.943c0 .481.241.721.721.721h36.048c1.281 0 1.922.614 1.922 1.842v9.773c0 1.282-.641 1.923-1.922 1.923h-50.627c-1.282 0-1.922-.641-1.922-1.923V83.504c0-1.281.64-1.922 1.922-1.922h50.627c1.281 0 1.922.641 1.922 1.922v9.773zm61.441 66.808c-1.015 0-1.709-.534-2.083-1.602l-3.124-10.414c-.107-.374-.347-.561-.721-.561H722.3c-.374 0-.588.187-.641.561l-3.124 10.414c-.374 1.068-1.095 1.602-2.163 1.602h-12.977c-.694 0-1.202-.214-1.522-.641-.267-.374-.294-.881-.08-1.522l23.871-74.738c.374-1.068 1.095-1.602 2.163-1.602h16.502c1.014 0 1.709.534 2.082 1.602l23.872 74.738c.107.16.16.4.16.721 0 .427-.16.774-.481 1.041-.267.267-.667.401-1.201.401h-13.057zm-30.12-25.554c-.107.534.08.801.561.801h19.866c.427 0 .614-.267.561-.801l-10.094-34.205c-.106-.32-.24-.48-.4-.48-.214 0-.401.16-.561.48l-9.933 34.205zm82.508 26.435c-5.821 0-10.947-1.122-15.38-3.364-4.379-2.297-7.77-5.501-10.173-9.613-2.403-4.112-3.605-8.865-3.605-14.259v-25.874c0-5.393 1.202-10.146 3.605-14.258 2.403-4.112 5.794-7.29 10.173-9.533 4.433-2.243 9.559-3.364 15.38-3.364 5.768 0 10.841 1.068 15.22 3.204 4.379 2.136 7.771 5.153 10.174 9.052 2.456 3.952 3.684 8.491 3.684 13.618 0 .694-.614 1.121-1.842 1.281l-11.936.721h-.48c-1.068 0-1.602-.187-1.602-.56v-.641c0-3.952-1.202-7.13-3.605-9.533-2.457-2.403-5.661-3.605-9.613-3.605-4.005 0-7.236 1.202-9.692 3.605-2.404 2.403-3.605 5.581-3.605 9.533v26.995c0 3.899 1.201 7.049 3.605 9.452 2.456 2.404 5.687 3.605 9.692 3.605 3.952 0 7.156-1.201 9.613-3.605 2.403-2.403 3.605-5.553 3.605-9.452 0-.374.187-.667.56-.881.321-.267.775-.374 1.362-.32l12.016.56c1.282.16 1.922.347 1.922.561v.561c0 5.18-1.228 9.746-3.684 13.698-2.403 3.952-5.795 7.022-10.174 9.212-4.379 2.136-9.452 3.204-15.22 3.204zm82.348-77.462c0-1.281.641-1.922 1.923-1.922h11.936c1.281 0 1.922.641 1.922 1.922v74.658c0 1.282-.641 1.923-1.922 1.923h-11.936c-1.282 0-1.923-.641-1.923-1.923v-30.279c0-.428-.24-.641-.721-.641h-24.512c-.48 0-.721.213-.721.641v30.279c0 1.282-.614 1.923-1.842 1.923h-12.016c-1.282 0-1.922-.641-1.922-1.923V83.504c0-1.281.64-1.922 1.922-1.922h12.016c1.228 0 1.842.641 1.842 1.922v29.479c0 .427.241.641.721.641h24.512c.481 0 .721-.214.721-.641V83.504zm36.688 77.061c-2.937 0-5.367-.961-7.289-2.883-1.976-1.923-2.964-4.219-2.964-6.889 0-2.617 1.041-4.887 3.124-6.809 2.136-1.923 4.513-2.884 7.129-2.884 2.724 0 5.154.961 7.29 2.884 2.083 1.922 3.124 4.192 3.124 6.809 0 2.67-1.015 4.966-3.044 6.889-2.029 1.922-4.486 2.883-7.37 2.883zm23.952-.48c-1.282 0-1.923-.641-1.923-1.923V83.504c0-1.281.641-1.922 1.923-1.922h12.016c.961 0 1.709.4 2.243 1.201l16.261 26.275c.16.214.32.32.481.32.213 0 .347-.106.4-.32l16.502-26.275c.534-.801 1.281-1.201 2.243-1.201h12.015c1.282 0 1.923.641 1.923 1.922v74.658c0 1.282-.641 1.923-1.923 1.923h-12.015c-1.282 0-1.923-.641-1.923-1.923v-48.543c0-.321-.08-.508-.24-.561-.214-.054-.401.053-.561.32l-11.295 18.505c-.534.854-1.281 1.281-2.243 1.281h-5.687c-1.015 0-1.762-.427-2.243-1.281l-11.215-18.505c-.16-.267-.347-.374-.561-.32-.16.053-.24.24-.24.561v48.543c0 1.282-.641 1.923-1.922 1.923H951.08zm132.253-66.808c0 1.228-.641 1.843-1.922 1.843h-36.128c-.427 0-.64.24-.64.721v17.142c0 .427.213.641.64.641h23.471c1.282 0 1.923.641 1.923 1.922v9.773c0 1.282-.641 1.923-1.923 1.923h-23.471c-.427 0-.64.213-.64.641v17.943c0 .481.213.721.64.721h36.128c1.281 0 1.922.614 1.922 1.842v9.773c0 1.282-.641 1.923-1.922 1.923h-50.707c-1.281 0-1.922-.641-1.922-1.923V83.504c0-1.281.641-1.922 1.922-1.922h50.707c1.281 0 1.922.641 1.922 1.922v9.773zM239.526 256.892l-1.7-.622c-65.915-24.233-71.102-87.78-71.148-88.418l-.011-.344v-92.67l4.074-.712c1.404-.247 34.78-6.018 68.783-6.018 34.006 0 67.384 5.771 68.788 6.018l4.075.712-.012 93.012c-.043.64-5.23 64.187-71.152 88.418l-1.697.624zm-63.013-89.575c.323 3.92 5.766 57.03 63.011 79.07 57.225-22.026 62.686-75.085 63.017-79.072V83.168c-9.961-1.532-36.649-5.214-63.017-5.214-26.388 0-53.055 3.682-63.011 5.214v84.149zM385.357 204.961h-16.714v10.655h13.222v1.97h-13.222v13.043h-2.09V203.05h18.804v1.911zm36.712-2.328c2.587 0 4.835.577 6.746 1.731 1.91 1.154 3.382 2.795 4.417 4.925 1.035 2.129 1.552 4.646 1.552 7.551 0 2.905-.517 5.422-1.552 7.551-1.035 2.129-2.507 3.771-4.417 4.925-1.911 1.154-4.159 1.731-6.746 1.731-2.587 0-4.835-.577-6.745-1.731-1.911-1.154-3.383-2.796-4.418-4.925-1.015-2.129-1.522-4.646-1.522-7.551 0-2.905.507-5.422 1.522-7.551 1.035-2.13 2.507-3.771 4.418-4.925 1.91-1.154 4.158-1.731 6.745-1.731zm0 1.91c-2.149 0-4.009.497-5.581 1.492s-2.786 2.418-3.642 4.268c-.835 1.851-1.253 4.03-1.253 6.537 0 2.507.418 4.686 1.253 6.536.856 1.851 2.07 3.274 3.642 4.269 1.572.994 3.432 1.492 5.581 1.492 2.149 0 4.02-.498 5.611-1.492 1.592-.995 2.806-2.418 3.642-4.269.855-1.85 1.283-4.029 1.283-6.536 0-2.507-.428-4.686-1.283-6.537-.836-1.85-2.05-3.273-3.642-4.268-1.591-.995-3.462-1.492-5.611-1.492zm61.276 26.086h-2.477l-7.909-11.939h-8.268v11.939h-2.089V203.05h10.237c2.766 0 4.965.697 6.596 2.09 1.632 1.393 2.448 3.303 2.448 5.73 0 2.01-.587 3.672-1.761 4.985-1.174 1.333-2.776 2.189-4.806 2.567l8.029 12.207zm-18.654-25.668v11.759h8.118c2.229 0 3.93-.507 5.104-1.522 1.194-.995 1.791-2.437 1.791-4.328 0-1.89-.597-3.352-1.791-4.387-1.174-1.015-2.875-1.522-5.104-1.522h-8.118zm63.425-1.911v1.911h-10.058v25.668h-2.09v-25.668H505.91v-1.911h22.206zm28.265 0v27.579h-2.089V203.05h2.089zm48.383 1.911h-16.715v10.655h13.252v1.97h-13.252v13.043h-2.089V203.05h18.804v1.911zm44.323-1.911-9.76 16.834v10.745h-2.09v-10.745l-9.789-16.834h2.477l8.357 14.655 8.357-14.655h2.448zm74.528 0-9.79 16.834v10.745h-2.089v-10.745l-9.79-16.834h2.477l8.358 14.655 8.357-14.655h2.477zm35.727-.417c2.587 0 4.835.577 6.746 1.731 1.91 1.154 3.372 2.795 4.387 4.925 1.035 2.129 1.552 4.646 1.552 7.551 0 2.905-.517 5.422-1.552 7.551-1.015 2.129-2.477 3.771-4.387 4.925-1.911 1.154-4.159 1.731-6.746 1.731-2.606 0-4.855-.577-6.745-1.731-1.91-1.154-3.383-2.796-4.418-4.925-1.034-2.129-1.552-4.646-1.552-7.551 0-2.905.518-5.422 1.552-7.551 1.035-2.13 2.508-3.771 4.418-4.925 1.89-1.154 4.139-1.731 6.745-1.731zm0 1.91c-2.149 0-4.009.497-5.581 1.492s-2.786 2.418-3.642 4.268c-.855 1.851-1.283 4.03-1.283 6.537 0 2.507.428 4.686 1.283 6.536.856 1.851 2.07 3.274 3.642 4.269 1.572.994 3.432 1.492 5.581 1.492 2.129 0 3.99-.498 5.582-1.492 1.591-.995 2.815-2.418 3.671-4.269.836-1.85 1.253-4.029 1.253-6.536 0-2.507-.417-4.686-1.253-6.537-.856-1.85-2.08-3.273-3.671-4.268-1.592-.995-3.453-1.492-5.582-1.492zm61.456-1.493v17.521c0 3.382-.916 5.979-2.746 7.79-1.851 1.791-4.477 2.686-7.88 2.686-3.383 0-5.999-.895-7.85-2.686-1.87-1.811-2.805-4.408-2.805-7.79V203.05h2.089v17.103c0 2.945.726 5.173 2.179 6.686 1.452 1.532 3.581 2.298 6.387 2.298 2.786 0 4.905-.766 6.357-2.298 1.453-1.513 2.179-3.741 2.179-6.686V203.05h2.09zm49.964 27.579h-2.448l-7.909-11.939h-8.268v11.939h-2.089V203.05h10.237c2.766 0 4.965.697 6.597 2.09 1.611 1.393 2.417 3.303 2.417 5.73 0 2.01-.577 3.672-1.731 4.985-1.174 1.333-2.776 2.189-4.805 2.567l7.999 12.207zm-18.625-25.668v11.759h8.119c2.228 0 3.929-.507 5.103-1.522 1.194-.995 1.791-2.437 1.791-4.328 0-1.89-.597-3.352-1.791-4.387-1.174-1.015-2.875-1.522-5.103-1.522h-8.119zm54.083-2.328c5.174 0 8.636 2.029 10.387 6.088l-1.791 1.463c-.696-1.97-1.731-3.403-3.104-4.298-1.393-.895-3.213-1.343-5.462-1.343-1.612 0-3.015.259-4.208.776-1.214.497-2.13 1.174-2.746 2.029a4.857 4.857 0 0 0-.955 2.926c0 1.054.268 1.93.805 2.626.538.696 1.433 1.293 2.687 1.791 1.273.477 3.024.915 5.253 1.313 3.601.617 6.148 1.512 7.641 2.686 1.512 1.155 2.268 2.766 2.268 4.836 0 1.472-.438 2.785-1.313 3.939-.856 1.135-2.07 2.01-3.642 2.627-1.572.637-3.372.955-5.402.955-2.905 0-5.353-.577-7.342-1.731-1.99-1.154-3.353-2.776-4.089-4.865l1.85-1.433c.557 1.99 1.682 3.502 3.373 4.537 1.671 1.055 3.751 1.582 6.238 1.582 2.388 0 4.348-.488 5.88-1.463 1.512-.975 2.268-2.318 2.268-4.029 0-1.472-.617-2.636-1.85-3.492-1.254-.876-3.413-1.572-6.477-2.089-2.587-.458-4.626-1.005-6.119-1.642-1.512-.637-2.597-1.433-3.253-2.388-.657-.935-.985-2.119-.985-3.552 0-1.412.418-2.716 1.253-3.91.816-1.213 1.98-2.168 3.493-2.865 1.512-.716 3.293-1.074 5.342-1.074zm40.324 26.086h17.401v1.91h-19.491V203.05h18.834v1.911h-16.744v10.655h13.222v1.97h-13.222v11.133zm46.442 0h16.565v1.91h-18.654V203.05h2.089v25.669zm61.515-23.758h-16.714v10.655h13.252v1.97h-13.252v13.043h-2.09V203.05h18.804v1.911zm28.056-1.911v13.372l-.268 6.268h-1.672l-.239-6.268V203.05h2.179zm-1.104 24.147c.557 0 1.015.179 1.373.537.338.338.507.786.507 1.343 0 .557-.169 1.015-.507 1.373-.358.338-.816.508-1.373.508s-1.005-.17-1.343-.508c-.358-.358-.537-.816-.537-1.373s.179-1.005.537-1.343c.338-.358.786-.537 1.343-.537z" style="fill:#fff;fill-rule:nonzero"/></svg>