<svg data-v-423bf9ae="" xmlns="http://www.w3.org/2000/svg" viewBox="0 0 506 103" class="iconLeftSlogan"><!----><!----><!----><g data-v-423bf9ae="" id="3e37ae6e-6cad-4918-89ce-ab50efd87d45" fill="white" transform="matrix(5.9880242347717285,0,0,5.9880242347717285,95.53030395507812,-24.49102210998535)"><path d="M0.81 14L0.81 14Q0.55 14 0.55 13.73L0.55 13.73L0.55 4.47L0.55 4.47Q0.55 4.20 0.81 4.20L0.81 4.20L4.35 4.20L4.35 4.20Q5.49 4.20 6.36 4.59L6.36 4.59L6.36 4.59Q7.24 4.98 7.71 5.70L7.71 5.70L7.71 5.70Q8.19 6.41 8.19 7.35L8.19 7.35L8.19 10.85L8.19 10.85Q8.19 11.79 7.71 12.50L7.71 12.50L7.71 12.50Q7.24 13.22 6.36 13.61L6.36 13.61L6.36 13.61Q5.49 14 4.35 14L4.35 14L0.81 14ZM3.18 11.63L3.18 11.63Q3.18 11.75 3.29 11.75L3.29 11.75L4.45 11.75L4.45 11.75Q4.93 11.75 5.24 11.38L5.24 11.38L5.24 11.38Q5.54 11.00 5.56 10.40L5.56 10.40L5.56 7.80L5.56 7.80Q5.56 7.20 5.25 6.83L5.25 6.83L5.25 6.83Q4.94 6.45 4.44 6.45L4.44 6.45L3.29 6.45L3.29 6.45Q3.18 6.45 3.18 6.57L3.18 6.57L3.18 11.63ZM16.30 6.19L16.30 6.19Q16.30 6.45 16.03 6.45L16.03 6.45L11.94 6.45L11.94 6.45Q11.83 6.45 11.83 6.57L11.83 6.57L11.83 7.80L11.83 7.80Q11.83 7.91 11.94 7.91L11.94 7.91L14.43 7.91L14.43 7.91Q14.70 7.91 14.70 8.18L14.70 8.18L14.70 9.88L14.70 9.88Q14.70 10.15 14.43 10.15L14.43 10.15L11.94 10.15L11.94 10.15Q11.83 10.15 11.83 10.26L11.83 10.26L11.83 11.63L11.83 11.63Q11.83 11.75 11.94 11.75L11.94 11.75L16.03 11.75L16.03 11.75Q16.30 11.75 16.30 12.01L16.30 12.01L16.30 13.73L16.30 13.73Q16.30 14 16.03 14L16.03 14L9.46 14L9.46 14Q9.20 14 9.20 13.73L9.20 13.73L9.20 4.47L9.20 4.47Q9.20 4.20 9.46 4.20L9.46 4.20L16.03 4.20L16.03 4.20Q16.30 4.20 16.30 4.47L16.30 4.47L16.30 6.19ZM23.62 8.88L23.62 8.88Q23.56 8.90 23.56 8.95L23.56 8.95L23.56 8.95Q23.56 8.99 23.62 9.02L23.62 9.02L23.62 9.02Q24.21 9.37 24.49 9.91L24.49 9.91L24.49 9.91Q24.78 10.44 24.78 11.20L24.78 11.20L24.78 11.20Q24.78 12.64 23.77 13.32L23.77 13.32L23.77 13.32Q22.76 14 21.15 14L21.15 14L17.44 14L17.44 14Q17.18 14 17.18 13.73L17.18 13.73L17.18 4.47L17.18 4.47Q17.18 4.20 17.44 4.20L17.44 4.20L21.03 4.20L21.03 4.20Q22.82 4.20 23.72 4.84L23.72 4.84L23.72 4.84Q24.63 5.47 24.63 6.97L24.63 6.97L24.63 6.97Q24.63 8.27 23.62 8.88L23.62 8.88ZM19.92 6.45L19.92 6.45Q19.81 6.45 19.81 6.57L19.81 6.57L19.81 7.88L19.81 7.88Q19.81 7.99 19.92 7.99L19.92 7.99L21.03 7.99L21.03 7.99Q22.05 7.99 22.05 7.22L22.05 7.22L22.05 7.22Q22.05 6.45 21.03 6.45L21.03 6.45L19.92 6.45ZM21.15 11.75L21.15 11.75Q22.15 11.75 22.15 10.92L22.15 10.92L22.15 10.92Q22.15 10.14 21.17 10.14L21.17 10.14L19.92 10.14L19.92 10.14Q19.81 10.14 19.81 10.25L19.81 10.25L19.81 11.63L19.81 11.63Q19.81 11.75 19.92 11.75L19.92 11.75L21.15 11.75ZM31.00 14L31.00 14Q30.77 14 30.69 13.80L30.69 13.80L29.18 10.32L29.18 10.32Q29.15 10.23 29.04 10.23L29.04 10.23L28.53 10.23L28.53 10.23Q28.42 10.23 28.42 10.35L28.42 10.35L28.42 13.73L28.42 13.73Q28.42 14 28.15 14L28.15 14L26.05 14L26.05 14Q25.79 14 25.79 13.73L25.79 13.73L25.79 4.47L25.79 4.47Q25.79 4.20 26.05 4.20L26.05 4.20L30.24 4.20L30.24 4.20Q31.19 4.20 31.91 4.59L31.91 4.59L31.91 4.59Q32.63 4.98 33.03 5.69L33.03 5.69L33.03 5.69Q33.43 6.40 33.43 7.32L33.43 7.32L33.43 7.32Q33.43 8.23 32.99 8.92L32.99 8.92L32.99 8.92Q32.55 9.60 31.77 9.94L31.77 9.94L31.77 9.94Q31.67 9.98 31.71 10.08L31.71 10.08L33.42 13.69L33.42 13.69Q33.45 13.75 33.45 13.83L33.45 13.83L33.45 13.83Q33.45 14 33.22 14L33.22 14L31.00 14ZM28.53 6.45L28.53 6.45Q28.42 6.45 28.42 6.57L28.42 6.57L28.42 8.12L28.42 8.12Q28.42 8.23 28.53 8.23L28.53 8.23L29.81 8.23L29.81 8.23Q30.25 8.23 30.53 7.99L30.53 7.99L30.53 7.99Q30.81 7.74 30.81 7.35L30.81 7.35L30.81 7.35Q30.81 6.94 30.53 6.70L30.53 6.70L30.53 6.70Q30.25 6.45 29.81 6.45L29.81 6.45L28.53 6.45ZM41.50 6.19L41.50 6.19Q41.50 6.45 41.23 6.45L41.23 6.45L37.14 6.45L37.14 6.45Q37.03 6.45 37.03 6.57L37.03 6.57L37.03 7.80L37.03 7.80Q37.03 7.91 37.14 7.91L37.14 7.91L39.63 7.91L39.63 7.91Q39.90 7.91 39.90 8.18L39.90 8.18L39.90 9.88L39.90 9.88Q39.90 10.15 39.63 10.15L39.63 10.15L37.14 10.15L37.14 10.15Q37.03 10.15 37.03 10.26L37.03 10.26L37.03 11.63L37.03 11.63Q37.03 11.75 37.14 11.75L37.14 11.75L41.23 11.75L41.23 11.75Q41.50 11.75 41.50 12.01L41.50 12.01L41.50 13.73L41.50 13.73Q41.50 14 41.23 14L41.23 14L34.66 14L34.66 14Q34.40 14 34.40 13.73L34.40 13.73L34.40 4.47L34.40 4.47Q34.40 4.20 34.66 4.20L34.66 4.20L41.23 4.20L41.23 4.20Q41.50 4.20 41.50 4.47L41.50 4.47L41.50 6.19ZM48.99 14L48.99 14Q48.75 14 48.69 13.78L48.69 13.78L48.41 12.77L48.41 12.77Q48.38 12.67 48.29 12.67L48.29 12.67L45.37 12.67L45.37 12.67Q45.28 12.67 45.25 12.77L45.25 12.77L44.97 13.78L44.97 13.78Q44.91 14 44.67 14L44.67 14L42.41 14L42.41 14Q42.27 14 42.20 13.92L42.20 13.92L42.20 13.92Q42.14 13.83 42.18 13.69L42.18 13.69L45.09 4.42L45.09 4.42Q45.16 4.20 45.39 4.20L45.39 4.20L48.27 4.20L48.27 4.20Q48.50 4.20 48.57 4.42L48.57 4.42L51.48 13.69L51.48 13.69Q51.49 13.73 51.49 13.79L51.49 13.79L51.49 13.79Q51.49 14 51.25 14L51.25 14L48.99 14ZM45.86 10.53L45.86 10.56L45.86 10.56Q45.86 10.65 45.96 10.65L45.96 10.65L47.70 10.65L47.70 10.65Q47.75 10.65 47.78 10.62L47.78 10.62L47.78 10.62Q47.81 10.58 47.80 10.53L47.80 10.53L46.90 7.29L46.90 7.29Q46.89 7.22 46.84 7.22L46.84 7.22L46.84 7.22Q46.79 7.22 46.76 7.29L46.76 7.29L45.86 10.53ZM56.11 14.11L56.11 14.11Q54.96 14.11 54.09 13.66L54.09 13.66L54.09 13.66Q53.21 13.22 52.73 12.40L52.73 12.40L52.73 12.40Q52.25 11.58 52.25 10.50L52.25 10.50L52.25 7.67L52.25 7.67Q52.25 6.61 52.73 5.80L52.73 5.80L52.73 5.80Q53.21 4.98 54.09 4.54L54.09 4.54L54.09 4.54Q54.96 4.09 56.11 4.09L56.11 4.09L56.11 4.09Q57.26 4.09 58.14 4.51L58.14 4.51L58.14 4.51Q59.01 4.93 59.49 5.69L59.49 5.69L59.49 5.69Q59.98 6.45 59.98 7.46L59.98 7.46L59.98 7.46Q59.98 7.59 59.72 7.62L59.72 7.62L57.62 7.76L57.55 7.76L57.55 7.76Q57.34 7.76 57.34 7.69L57.34 7.69L57.34 7.60L57.34 7.60Q57.34 7.03 57.01 6.68L57.01 6.68L57.01 6.68Q56.67 6.34 56.11 6.34L56.11 6.34L56.11 6.34Q55.55 6.34 55.22 6.68L55.22 6.68L55.22 6.68Q54.88 7.03 54.88 7.60L54.88 7.60L54.88 10.61L54.88 10.61Q54.88 11.17 55.22 11.52L55.22 11.52L55.22 11.52Q55.55 11.86 56.11 11.86L56.11 11.86L56.11 11.86Q56.67 11.86 57.01 11.52L57.01 11.52L57.01 11.52Q57.34 11.17 57.34 10.61L57.34 10.61L57.34 10.61Q57.34 10.54 57.42 10.49L57.42 10.49L57.42 10.49Q57.50 10.44 57.62 10.46L57.62 10.46L59.72 10.57L59.72 10.57Q59.98 10.58 59.98 10.64L59.98 10.64L59.98 10.71L59.98 10.71Q59.98 11.72 59.49 12.49L59.49 12.49L59.49 12.49Q59.01 13.26 58.14 13.69L58.14 13.69L58.14 13.69Q57.26 14.11 56.11 14.11L56.11 14.11ZM65.86 4.47L65.86 4.47Q65.86 4.20 66.12 4.20L66.12 4.20L68.22 4.20L68.22 4.20Q68.49 4.20 68.49 4.47L68.49 4.47L68.49 13.73L68.49 13.73Q68.49 14 68.22 14L68.22 14L66.12 14L66.12 14Q65.86 14 65.86 13.73L65.86 13.73L65.86 10.28L65.86 10.28Q65.86 10.16 65.74 10.16L65.74 10.16L63.64 10.16L63.64 10.16Q63.53 10.16 63.53 10.28L63.53 10.28L63.53 13.73L63.53 13.73Q63.53 14 63.27 14L63.27 14L61.17 14L61.17 14Q60.90 14 60.90 13.73L60.90 13.73L60.90 4.47L60.90 4.47Q60.90 4.20 61.17 4.20L61.17 4.20L63.27 4.20L63.27 4.20Q63.53 4.20 63.53 4.47L63.53 4.47L63.53 7.80L63.53 7.80Q63.53 7.91 63.64 7.91L63.64 7.91L65.74 7.91L65.74 7.91Q65.86 7.91 65.86 7.80L65.86 7.80L65.86 4.47Z"></path></g><!----><g data-v-423bf9ae="" id="baa94cae-120f-4c07-92a0-ae81fcbd349b" transform="matrix(1.0652000904083252,0,0,1.0652000904083252,-14.323299407958984,-1.1775760650634766)" stroke="none" fill="white"><path d="M50.978 97.682l-.863-.316c-33.473-12.306-36.107-44.576-36.13-44.9l-.006-.175V5.232l2.069-.362c.713-.125 17.662-3.056 34.929-3.056 17.269 0 34.219 2.931 34.932 3.056l2.069.362-.006 47.233c-.022.325-2.656 32.595-36.132 44.9l-.862.317zM18.979 52.194c.164 1.991 2.928 28.961 31.998 40.153 29.06-11.185 31.833-38.129 32.001-40.154V9.462c-5.058-.778-18.611-2.648-32.001-2.648-13.4 0-26.942 1.87-31.998 2.648v42.732z"></path></g><!----><g data-v-423bf9ae="" id="f3ff7c03-a824-4429-ae92-5c1e4af7592d" fill="white" transform="matrix(1.064746618270874,0,0,1.064746618270874,97.62055206298828,57.764034271240234)"><path d="M7.83 3.22L7.83 2.21L1.13 2.21L1.13 11.48L2.18 11.48L2.18 7.46L7.21 7.46L7.21 6.44L2.18 6.44L2.18 3.22ZM20.41 2.10C17.60 2.10 15.71 4.21 15.71 6.85C15.71 9.48 17.60 11.59 20.41 11.59C23.23 11.59 25.12 9.48 25.12 6.85C25.12 4.21 23.23 2.10 20.41 2.10ZM20.41 10.57C18.16 10.57 16.76 8.93 16.76 6.85C16.76 4.76 18.16 3.12 20.41 3.12C22.67 3.12 24.07 4.76 24.07 6.85C24.07 8.93 22.67 10.57 20.41 10.57ZM34.85 7.92L38.07 7.92L40.31 11.48L41.55 11.48L39.12 7.74C40.15 7.50 41.36 6.90 41.36 5.11C41.36 3.35 40.14 2.21 38.23 2.21L33.80 2.21L33.80 11.48L34.85 11.48ZM34.85 3.21L38.11 3.21C39.42 3.21 40.31 3.93 40.31 5.11C40.31 6.55 39.05 6.93 38.05 6.93L34.85 6.93ZM56.74 2.21L49.22 2.21L49.22 3.22L52.46 3.22L52.46 11.48L53.51 11.48L53.51 3.22L56.74 3.22ZM66.12 2.21L65.07 2.21L65.07 11.48L66.12 11.48ZM82.08 3.22L82.08 2.21L75.39 2.21L75.39 11.48L76.44 11.48L76.44 7.46L81.47 7.46L81.47 6.44L76.44 6.44L76.44 3.22ZM94.35 7.81L98.22 2.21L96.95 2.21L93.81 6.72L90.68 2.21L89.40 2.21L93.30 7.81L93.30 11.48L94.35 11.48ZM120.13 7.81L124.01 2.21L122.74 2.21L119.60 6.72L116.47 2.21L115.19 2.21L119.08 7.81L119.08 11.48L120.13 11.48ZM135.76 2.10C132.94 2.10 131.05 4.21 131.05 6.85C131.05 9.48 132.94 11.59 135.76 11.59C138.57 11.59 140.46 9.48 140.46 6.85C140.46 4.21 138.57 2.10 135.76 2.10ZM135.76 10.57C133.50 10.57 132.10 8.93 132.10 6.85C132.10 4.76 133.50 3.12 135.76 3.12C138.01 3.12 139.41 4.76 139.41 6.85C139.41 8.93 138.01 10.57 135.76 10.57ZM155.86 2.21L155.86 7.52C155.86 9.67 154.43 10.57 152.96 10.57C151.49 10.57 150.08 9.67 150.08 7.52L150.08 2.21L149.03 2.21L149.03 7.49C149.03 9.95 150.65 11.59 152.96 11.59C155.29 11.59 156.91 9.94 156.91 7.49L156.91 2.21ZM167.12 7.92L170.34 7.92L172.58 11.48L173.82 11.48L171.39 7.74C172.42 7.50 173.63 6.90 173.63 5.11C173.63 3.35 172.41 2.21 170.51 2.21L166.07 2.21L166.07 11.48L167.12 11.48ZM167.12 3.21L170.38 3.21C171.70 3.21 172.58 3.93 172.58 5.11C172.58 6.55 171.32 6.93 170.32 6.93L167.12 6.93ZM198.25 6.75C198.91 6.45 199.50 5.85 199.50 4.66C199.50 3.54 198.76 2.21 196.57 2.21L192.42 2.21L192.42 11.48L196.81 11.48C198.93 11.48 199.98 10.43 199.98 9.04C199.98 7.66 199.04 7 198.25 6.75ZM193.47 3.21L196.69 3.21C197.96 3.21 198.45 3.98 198.45 4.75C198.45 5.88 197.54 6.36 196.57 6.36L193.47 6.36ZM196.92 10.49L193.47 10.49L193.47 7.31L196.81 7.31C198.28 7.31 198.93 8.09 198.93 8.96C198.93 9.93 198.20 10.49 196.92 10.49ZM215.40 2.21L215.40 7.52C215.40 9.67 213.98 10.57 212.51 10.57C211.04 10.57 209.62 9.67 209.62 7.52L209.62 2.21L208.57 2.21L208.57 7.49C208.57 9.95 210.20 11.59 212.51 11.59C214.83 11.59 216.45 9.94 216.45 7.49L216.45 2.21ZM226.23 4.65C226.23 4.03 226.59 3.08 228.69 3.08C230.38 3.08 231.17 3.82 231.28 4.75L232.36 4.75C232.27 3.36 231.15 2.10 228.69 2.10C226.37 2.10 225.20 3.15 225.20 4.66C225.20 7.84 231.55 6.69 231.55 8.96C231.55 10.05 230.57 10.60 229.00 10.60C227.39 10.60 226.09 10.05 226.02 8.71L224.92 8.71C225.06 10.37 226.18 11.59 228.93 11.59C231.21 11.59 232.60 10.64 232.60 8.92C232.60 5.68 226.23 6.80 226.23 4.65ZM242.27 2.21L241.22 2.21L241.22 11.48L242.27 11.48ZM258.48 2.21L258.48 10.01L252.76 2.21L251.54 2.21L251.54 11.48L252.59 11.48L252.59 3.65L258.31 11.48L259.53 11.48L259.53 2.21ZM275.62 3.22L275.62 2.21L268.80 2.21L268.80 11.48L275.62 11.48L275.62 10.47L269.85 10.47L269.85 7.35L275.00 7.35L275.00 6.33L269.85 6.33L269.85 3.22ZM284.82 4.65C284.82 4.03 285.18 3.08 287.28 3.08C288.97 3.08 289.76 3.82 289.87 4.75L290.95 4.75C290.86 3.36 289.74 2.10 287.28 2.10C284.96 2.10 283.79 3.15 283.79 4.66C283.79 7.84 290.14 6.69 290.14 8.96C290.14 10.05 289.16 10.60 287.59 10.60C285.98 10.60 284.68 10.05 284.61 8.71L283.51 8.71C283.65 10.37 284.77 11.59 287.52 11.59C289.80 11.59 291.19 10.64 291.19 8.92C291.19 5.68 284.82 6.80 284.82 4.65ZM300.43 4.65C300.43 4.03 300.79 3.08 302.89 3.08C304.58 3.08 305.37 3.82 305.48 4.75L306.56 4.75C306.47 3.36 305.35 2.10 302.89 2.10C300.57 2.10 299.40 3.15 299.40 4.66C299.40 7.84 305.75 6.69 305.75 8.96C305.75 10.05 304.77 10.60 303.20 10.60C301.59 10.60 300.29 10.05 300.22 8.71L299.12 8.71C299.26 10.37 300.38 11.59 303.13 11.59C305.41 11.59 306.80 10.64 306.80 8.92C306.80 5.68 300.43 6.80 300.43 4.65Z"></path></g></svg>