<svg data-v-423bf9ae="" xmlns="http://www.w3.org/2000/svg" viewBox="0 0 503 103" class="iconLeftSlogan"><!----><!----><!----><g data-v-423bf9ae="" id="cb077b34-6985-4f47-b717-64a615314298" fill="#000000" transform="matrix(5.9880242347717285,0,0,5.9880242347717285,93.73391723632812,-24.49102210998535)"><path d="M1.09 14L1.09 14Q0.85 14 0.85 13.76L0.85 13.76L0.85 4.44L0.85 4.44Q0.85 4.20 1.09 4.20L1.09 4.20L4.52 4.20L4.52 4.20Q5.57 4.20 6.36 4.57L6.36 4.57L6.36 4.57Q7.15 4.94 7.59 5.61L7.59 5.61L7.59 5.61Q8.02 6.29 8.02 7.17L8.02 7.17L8.02 11.03L8.02 11.03Q8.02 11.91 7.59 12.59L7.59 12.59L7.59 12.59Q7.15 13.26 6.36 13.63L6.36 13.63L6.36 13.63Q5.57 14 4.52 14L4.52 14L1.09 14ZM2.83 12.22L2.83 12.22Q2.83 12.31 2.91 12.31L2.91 12.31L4.59 12.31L4.59 12.31Q5.24 12.31 5.63 11.87L5.63 11.87L5.63 11.87Q6.03 11.44 6.05 10.71L6.05 10.71L6.05 7.49L6.05 7.49Q6.05 6.76 5.65 6.33L5.65 6.33L5.65 6.33Q5.25 5.89 4.58 5.89L4.58 5.89L2.91 5.89L2.91 5.89Q2.83 5.89 2.83 5.98L2.83 5.98L2.83 12.22ZM16.31 5.66L16.31 5.66Q16.31 5.89 16.07 5.89L16.07 5.89L11.56 5.89L11.56 5.89Q11.48 5.89 11.48 5.98L11.48 5.98L11.48 8.12L11.48 8.12Q11.48 8.20 11.56 8.20L11.56 8.20L14.49 8.20L14.49 8.20Q14.73 8.20 14.73 8.44L14.73 8.44L14.73 9.66L14.73 9.66Q14.73 9.90 14.49 9.90L14.49 9.90L11.56 9.90L11.56 9.90Q11.48 9.90 11.48 9.98L11.48 9.98L11.48 12.22L11.48 12.22Q11.48 12.31 11.56 12.31L11.56 12.31L16.07 12.31L16.07 12.31Q16.31 12.31 16.31 12.54L16.31 12.54L16.31 13.76L16.31 13.76Q16.31 14 16.07 14L16.07 14L9.74 14L9.74 14Q9.51 14 9.51 13.76L9.51 13.76L9.51 4.44L9.51 4.44Q9.51 4.20 9.74 4.20L9.74 4.20L16.07 4.20L16.07 4.20Q16.31 4.20 16.31 4.44L16.31 4.44L16.31 5.66ZM23.51 8.88L23.51 8.88Q23.46 8.89 23.46 8.93L23.46 8.93L23.46 8.93Q23.46 8.96 23.51 8.99L23.51 8.99L23.51 8.99Q24.82 9.65 24.82 11.26L24.82 11.26L24.82 11.26Q24.82 12.61 23.90 13.31L23.90 13.31L23.90 13.31Q22.97 14 21.48 14L21.48 14L17.92 14L17.92 14Q17.68 14 17.68 13.76L17.68 13.76L17.68 4.44L17.68 4.44Q17.68 4.20 17.92 4.20L17.92 4.20L21.36 4.20L21.36 4.20Q24.68 4.20 24.68 6.89L24.68 6.89L24.68 6.89Q24.68 8.30 23.51 8.88L23.51 8.88ZM19.74 5.89L19.74 5.89Q19.66 5.89 19.66 5.98L19.66 5.98L19.66 8.13L19.66 8.13Q19.66 8.22 19.74 8.22L19.74 8.22L21.36 8.22L21.36 8.22Q22.02 8.22 22.39 7.91L22.39 7.91L22.39 7.91Q22.75 7.60 22.75 7.07L22.75 7.07L22.75 7.07Q22.75 6.52 22.39 6.21L22.39 6.21L22.39 6.21Q22.02 5.89 21.36 5.89L21.36 5.89L19.74 5.89ZM21.48 12.29L21.48 12.29Q22.12 12.29 22.48 11.96L22.48 11.96L22.48 11.96Q22.85 11.63 22.85 11.06L22.85 11.06L22.85 11.06Q22.85 10.49 22.48 10.16L22.48 10.16L22.48 10.16Q22.12 9.83 21.46 9.83L21.46 9.83L19.74 9.83L19.74 9.83Q19.66 9.83 19.66 9.91L19.66 9.91L19.66 12.21L19.66 12.21Q19.66 12.29 19.74 12.29L19.74 12.29L21.48 12.29ZM31.79 14L31.79 14Q31.61 14 31.51 13.82L31.51 13.82L29.79 10.01L29.79 10.01Q29.76 9.94 29.69 9.94L29.69 9.94L28.42 9.94L28.42 9.94Q28.34 9.94 28.34 10.02L28.34 10.02L28.34 13.76L28.34 13.76Q28.34 14 28.10 14L28.10 14L26.60 14L26.60 14Q26.36 14 26.36 13.76L26.36 13.76L26.36 4.42L26.36 4.42Q26.36 4.19 26.60 4.19L26.60 4.19L30.53 4.19L30.53 4.19Q31.43 4.19 32.11 4.56L32.11 4.56L32.11 4.56Q32.79 4.93 33.16 5.60L33.16 5.60L33.16 5.60Q33.53 6.27 33.53 7.14L33.53 7.14L33.53 7.14Q33.53 8.09 33.05 8.78L33.05 8.78L33.05 8.78Q32.58 9.46 31.74 9.74L31.74 9.74L31.74 9.74Q31.70 9.76 31.68 9.79L31.68 9.79L31.68 9.79Q31.67 9.83 31.70 9.86L31.70 9.86L33.54 13.72L33.54 13.72Q33.59 13.78 33.59 13.85L33.59 13.85L33.59 13.85Q33.59 13.92 33.53 13.96L33.53 13.96L33.53 13.96Q33.47 14 33.38 14L33.38 14L31.79 14ZM28.42 5.89L28.42 5.89Q28.34 5.89 28.34 5.98L28.34 5.98L28.34 8.33L28.34 8.33Q28.34 8.41 28.42 8.41L28.42 8.41L30.24 8.41L30.24 8.41Q30.83 8.41 31.20 8.07L31.20 8.07L31.20 8.07Q31.57 7.73 31.57 7.17L31.57 7.17L31.57 7.17Q31.57 6.61 31.20 6.25L31.20 6.25L31.20 6.25Q30.83 5.89 30.24 5.89L30.24 5.89L28.42 5.89ZM41.76 5.66L41.76 5.66Q41.76 5.89 41.52 5.89L41.52 5.89L37.02 5.89L37.02 5.89Q36.93 5.89 36.93 5.98L36.93 5.98L36.93 8.12L36.93 8.12Q36.93 8.20 37.02 8.20L37.02 8.20L39.94 8.20L39.94 8.20Q40.18 8.20 40.18 8.44L40.18 8.44L40.18 9.66L40.18 9.66Q40.18 9.90 39.94 9.90L39.94 9.90L37.02 9.90L37.02 9.90Q36.93 9.90 36.93 9.98L36.93 9.98L36.93 12.22L36.93 12.22Q36.93 12.31 37.02 12.31L37.02 12.31L41.52 12.31L41.52 12.31Q41.76 12.31 41.76 12.54L41.76 12.54L41.76 13.76L41.76 13.76Q41.76 14 41.52 14L41.52 14L35.20 14L35.20 14Q34.96 14 34.96 13.76L34.96 13.76L34.96 4.44L34.96 4.44Q34.96 4.20 35.20 4.20L35.20 4.20L41.52 4.20L41.52 4.20Q41.76 4.20 41.76 4.44L41.76 4.44L41.76 5.66ZM49.43 14L49.43 14Q49.24 14 49.17 13.80L49.17 13.80L48.78 12.50L48.78 12.50Q48.76 12.43 48.69 12.43L48.69 12.43L45.26 12.43L45.26 12.43Q45.19 12.43 45.18 12.50L45.18 12.50L44.79 13.80L44.79 13.80Q44.72 14 44.52 14L44.52 14L42.90 14L42.90 14Q42.77 14 42.71 13.92L42.71 13.92L42.71 13.92Q42.66 13.85 42.70 13.73L42.70 13.73L45.68 4.40L45.68 4.40Q45.75 4.20 45.95 4.20L45.95 4.20L48.01 4.20L48.01 4.20Q48.20 4.20 48.27 4.40L48.27 4.40L51.25 13.73L51.25 13.73Q51.27 13.76 51.27 13.82L51.27 13.82L51.27 13.82Q51.27 13.90 51.21 13.95L51.21 13.95L51.21 13.95Q51.16 14 51.06 14L51.06 14L49.43 14ZM45.67 10.81L45.67 10.81Q45.65 10.91 45.74 10.91L45.74 10.91L48.22 10.91L48.22 10.91Q48.30 10.91 48.29 10.81L48.29 10.81L47.03 6.54L47.03 6.54Q47.01 6.48 46.98 6.48L46.98 6.48L46.98 6.48Q46.94 6.48 46.91 6.54L46.91 6.54L45.67 10.81ZM55.97 14.11L55.97 14.11Q54.88 14.11 54.05 13.69L54.05 13.69L54.05 13.69Q53.23 13.26 52.78 12.49L52.78 12.49L52.78 12.49Q52.33 11.72 52.33 10.71L52.33 10.71L52.33 7.48L52.33 7.48Q52.33 6.47 52.78 5.70L52.78 5.70L52.78 5.70Q53.23 4.93 54.05 4.51L54.05 4.51L54.05 4.51Q54.88 4.09 55.97 4.09L55.97 4.09L55.97 4.09Q57.05 4.09 57.87 4.49L57.87 4.49L57.87 4.49Q58.69 4.89 59.14 5.62L59.14 5.62L59.14 5.62Q59.60 6.36 59.60 7.32L59.60 7.32L59.60 7.32Q59.60 7.45 59.37 7.48L59.37 7.48L57.88 7.57L57.82 7.57L57.82 7.57Q57.62 7.57 57.62 7.50L57.62 7.50L57.62 7.42L57.62 7.42Q57.62 6.68 57.17 6.23L57.17 6.23L57.17 6.23Q56.71 5.78 55.97 5.78L55.97 5.78L55.97 5.78Q55.22 5.78 54.76 6.23L54.76 6.23L54.76 6.23Q54.31 6.68 54.31 7.42L54.31 7.42L54.31 10.79L54.31 10.79Q54.31 11.52 54.76 11.97L54.76 11.97L54.76 11.97Q55.22 12.42 55.97 12.42L55.97 12.42L55.97 12.42Q56.71 12.42 57.17 11.97L57.17 11.97L57.17 11.97Q57.62 11.52 57.62 10.79L57.62 10.79L57.62 10.79Q57.62 10.72 57.69 10.68L57.69 10.68L57.69 10.68Q57.75 10.63 57.86 10.64L57.86 10.64L59.36 10.71L59.36 10.71Q59.60 10.74 59.60 10.78L59.60 10.78L59.60 10.85L59.60 10.85Q59.60 11.82 59.14 12.56L59.14 12.56L59.14 12.56Q58.69 13.30 57.87 13.71L57.87 13.71L57.87 13.71Q57.05 14.11 55.97 14.11L55.97 14.11ZM66.25 4.44L66.25 4.44Q66.25 4.20 66.49 4.20L66.49 4.20L67.98 4.20L67.98 4.20Q68.22 4.20 68.22 4.44L68.22 4.44L68.22 13.76L68.22 13.76Q68.22 14 67.98 14L67.98 14L66.49 14L66.49 14Q66.25 14 66.25 13.76L66.25 13.76L66.25 9.98L66.25 9.98Q66.25 9.90 66.16 9.90L66.16 9.90L63.10 9.90L63.10 9.90Q63.01 9.90 63.01 9.98L63.01 9.98L63.01 13.76L63.01 13.76Q63.01 14 62.78 14L62.78 14L61.28 14L61.28 14Q61.04 14 61.04 13.76L61.04 13.76L61.04 4.44L61.04 4.44Q61.04 4.20 61.28 4.20L61.28 4.20L62.78 4.20L62.78 4.20Q63.01 4.20 63.01 4.44L63.01 4.44L63.01 8.12L63.01 8.12Q63.01 8.20 63.10 8.20L63.10 8.20L66.16 8.20L66.16 8.20Q66.25 8.20 66.25 8.12L66.25 8.12L66.25 4.44Z"></path></g><defs data-v-423bf9ae=""><linearGradient data-v-423bf9ae="" gradientTransform="rotate(25)" id="9941f86f-4264-422a-b3cb-bcbadb83eea5" x1="0%" y1="0%" x2="100%" y2="0%"><stop data-v-423bf9ae="" offset="0%" style="stop-color: rgb(146, 13, 233); stop-opacity: 1;"></stop><stop data-v-423bf9ae="" offset="100%" style="stop-color: rgb(21, 54, 241); stop-opacity: 1;"></stop></linearGradient></defs><g data-v-423bf9ae="" id="2e173dcb-8cab-4149-b8c8-44270454b197" transform="matrix(1.0652000904083252,0,0,1.0652000904083252,-14.323299407958984,-1.1775760650634766)" stroke="none" fill="url(#9941f86f-4264-422a-b3cb-bcbadb83eea5)"><path d="M50.978 97.682l-.863-.316c-33.473-12.306-36.107-44.576-36.13-44.9l-.006-.175V5.232l2.069-.362c.713-.125 17.662-3.056 34.929-3.056 17.269 0 34.219 2.931 34.932 3.056l2.069.362-.006 47.233c-.022.325-2.656 32.595-36.132 44.9l-.862.317zM18.979 52.194c.164 1.991 2.928 28.961 31.998 40.153 29.06-11.185 31.833-38.129 32.001-40.154V9.462c-5.058-.778-18.611-2.648-32.001-2.648-13.4 0-26.942 1.87-31.998 2.648v42.732z"></path></g><!----><g data-v-423bf9ae="" id="024fb699-f13b-46ec-a4fb-d22eb76677a1" fill="#000000" transform="matrix(1.343870759010315,0,0,1.343870759010315,96.86170196533203,55.108314514160156)"><path d="M7.76 4.42L2.16 4.42L2.16 7.99L6.59 7.99L6.59 8.65L2.16 8.65L2.16 13.02L1.46 13.02L1.46 3.78L7.76 3.78L7.76 4.42ZM20.06 3.64L20.06 3.64Q21.36 3.64 22.32 4.22L22.32 4.22L22.32 4.22Q23.28 4.80 23.80 5.87L23.80 5.87L23.80 5.87Q24.32 6.94 24.32 8.40L24.32 8.40L24.32 8.40Q24.32 9.86 23.80 10.93L23.80 10.93L23.80 10.93Q23.28 12.00 22.32 12.58L22.32 12.58L22.32 12.58Q21.36 13.16 20.06 13.16L20.06 13.16L20.06 13.16Q18.76 13.16 17.80 12.58L17.80 12.58L17.80 12.58Q16.84 12.00 16.32 10.93L16.32 10.93L16.32 10.93Q15.81 9.86 15.81 8.40L15.81 8.40L15.81 8.40Q15.81 6.94 16.32 5.87L16.32 5.87L16.32 5.87Q16.84 4.80 17.80 4.22L17.80 4.22L17.80 4.22Q18.76 3.64 20.06 3.64L20.06 3.64ZM20.06 4.28L20.06 4.28Q18.98 4.28 18.19 4.78L18.19 4.78L18.19 4.78Q17.40 5.28 16.97 6.21L16.97 6.21L16.97 6.21Q16.55 7.14 16.55 8.40L16.55 8.40L16.55 8.40Q16.55 9.66 16.97 10.59L16.97 10.59L16.97 10.59Q17.40 11.52 18.19 12.02L18.19 12.02L18.19 12.02Q18.98 12.52 20.06 12.52L20.06 12.52L20.06 12.52Q21.14 12.52 21.94 12.02L21.94 12.02L21.94 12.02Q22.74 11.52 23.16 10.59L23.16 10.59L23.16 10.59Q23.59 9.66 23.59 8.40L23.59 8.40L23.59 8.40Q23.59 7.14 23.16 6.21L23.16 6.21L23.16 6.21Q22.74 5.28 21.94 4.78L21.94 4.78L21.94 4.78Q21.14 4.28 20.06 4.28L20.06 4.28ZM40.59 13.02L39.76 13.02L37.11 9.02L37.07 9.02L34.34 9.02L34.34 13.02L33.64 13.02L33.64 3.78L37.07 3.78L37.07 3.78Q38.46 3.78 39.28 4.48L39.28 4.48L39.28 4.48Q40.10 5.18 40.10 6.40L40.10 6.40L40.10 6.40Q40.10 7.41 39.51 8.07L39.51 8.07L39.51 8.07Q38.92 8.74 37.90 8.93L37.90 8.93L40.59 13.02ZM34.34 4.42L34.34 8.36L37.06 8.36L37.06 8.36Q38.18 8.36 38.77 7.85L38.77 7.85L38.77 7.85Q39.37 7.35 39.37 6.40L39.37 6.40L39.37 6.40Q39.37 5.45 38.77 4.93L38.77 4.93L38.77 4.93Q38.18 4.42 37.06 4.42L37.06 4.42L34.34 4.42ZM55.59 3.78L55.59 4.42L52.22 4.42L52.22 13.02L51.52 13.02L51.52 4.42L48.15 4.42L48.15 3.78L55.59 3.78ZM65.06 3.78L65.06 13.02L64.36 13.02L64.36 3.78L65.06 3.78ZM81.27 4.42L75.67 4.42L75.67 7.99L80.11 7.99L80.11 8.65L75.67 8.65L75.67 13.02L74.97 13.02L74.97 3.78L81.27 3.78L81.27 4.42ZM96.12 3.78L92.85 9.42L92.85 13.02L92.15 13.02L92.15 9.42L88.87 3.78L89.70 3.78L92.50 8.69L95.30 3.78L96.12 3.78ZM121.09 3.78L117.81 9.42L117.81 13.02L117.11 13.02L117.11 9.42L113.83 3.78L114.66 3.78L117.46 8.69L120.26 3.78L121.09 3.78ZM133.06 3.64L133.06 3.64Q134.36 3.64 135.32 4.22L135.32 4.22L135.32 4.22Q136.28 4.80 136.79 5.87L136.79 5.87L136.79 5.87Q137.31 6.94 137.31 8.40L137.31 8.40L137.31 8.40Q137.31 9.86 136.79 10.93L136.79 10.93L136.79 10.93Q136.28 12.00 135.32 12.58L135.32 12.58L135.32 12.58Q134.36 13.16 133.06 13.16L133.06 13.16L133.06 13.16Q131.75 13.16 130.80 12.58L130.80 12.58L130.80 12.58Q129.84 12.00 129.32 10.93L129.32 10.93L129.32 10.93Q128.80 9.86 128.80 8.40L128.80 8.40L128.80 8.40Q128.80 6.94 129.32 5.87L129.32 5.87L129.32 5.87Q129.84 4.80 130.80 4.22L130.80 4.22L130.80 4.22Q131.75 3.64 133.06 3.64L133.06 3.64ZM133.06 4.28L133.06 4.28Q131.98 4.28 131.19 4.78L131.19 4.78L131.19 4.78Q130.40 5.28 129.97 6.21L129.97 6.21L129.97 6.21Q129.54 7.14 129.54 8.40L129.54 8.40L129.54 8.40Q129.54 9.66 129.97 10.59L129.97 10.59L129.97 10.59Q130.40 11.52 131.19 12.02L131.19 12.02L131.19 12.02Q131.98 12.52 133.06 12.52L133.06 12.52L133.06 12.52Q134.13 12.52 134.93 12.02L134.93 12.02L134.93 12.02Q135.73 11.52 136.16 10.59L136.16 10.59L136.16 10.59Q136.58 9.66 136.58 8.40L136.58 8.40L136.58 8.40Q136.58 7.14 136.16 6.21L136.16 6.21L136.16 6.21Q135.73 5.28 134.93 4.78L134.93 4.78L134.93 4.78Q134.13 4.28 133.06 4.28L133.06 4.28ZM153.65 3.78L153.65 9.65L153.65 9.65Q153.65 11.35 152.73 12.26L152.73 12.26L152.73 12.26Q151.80 13.16 150.09 13.16L150.09 13.16L150.09 13.16Q148.39 13.16 147.46 12.26L147.46 12.26L147.46 12.26Q146.52 11.35 146.52 9.65L146.52 9.65L146.52 3.78L147.22 3.78L147.22 9.51L147.22 9.51Q147.22 10.99 147.95 11.75L147.95 11.75L147.95 11.75Q148.68 12.52 150.09 12.52L150.09 12.52L150.09 12.52Q151.49 12.52 152.22 11.75L152.22 11.75L152.22 11.75Q152.95 10.99 152.95 9.51L152.95 9.51L152.95 3.78L153.65 3.78ZM170.39 13.02L169.57 13.02L166.92 9.02L166.88 9.02L164.15 9.02L164.15 13.02L163.45 13.02L163.45 3.78L166.88 3.78L166.88 3.78Q168.27 3.78 169.09 4.48L169.09 4.48L169.09 4.48Q169.90 5.18 169.90 6.40L169.90 6.40L169.90 6.40Q169.90 7.41 169.32 8.07L169.32 8.07L169.32 8.07Q168.73 8.74 167.71 8.93L167.71 8.93L170.39 13.02ZM164.15 4.42L164.15 8.36L166.87 8.36L166.87 8.36Q167.99 8.36 168.58 7.85L168.58 7.85L168.58 7.85Q169.18 7.35 169.18 6.40L169.18 6.40L169.18 6.40Q169.18 5.45 168.58 4.93L168.58 4.93L168.58 4.93Q167.99 4.42 166.87 4.42L166.87 4.42L164.15 4.42ZM182.27 3.64L182.27 3.64Q184.87 3.64 185.75 5.68L185.75 5.68L185.15 6.17L185.15 6.17Q184.80 5.18 184.11 4.73L184.11 4.73L184.11 4.73Q183.41 4.28 182.28 4.28L182.28 4.28L182.28 4.28Q181.47 4.28 180.87 4.54L180.87 4.54L180.87 4.54Q180.26 4.79 179.95 5.22L179.95 5.22L179.95 5.22Q179.63 5.66 179.63 6.20L179.63 6.20L179.63 6.20Q179.63 6.73 179.90 7.08L179.90 7.08L179.90 7.08Q180.17 7.43 180.80 7.68L180.80 7.68L180.80 7.68Q181.44 7.92 182.56 8.12L182.56 8.12L182.56 8.12Q184.37 8.43 185.12 9.02L185.12 9.02L185.12 9.02Q185.88 9.60 185.88 10.64L185.88 10.64L185.88 10.64Q185.88 11.38 185.44 11.96L185.44 11.96L185.44 11.96Q185.01 12.53 184.22 12.84L184.22 12.84L184.22 12.84Q183.43 13.16 182.41 13.16L182.41 13.16L182.41 13.16Q180.95 13.16 179.95 12.58L179.95 12.58L179.95 12.58Q178.95 12.00 178.58 10.95L178.58 10.95L179.20 10.47L179.20 10.47Q179.48 11.47 180.33 11.99L180.33 11.99L180.33 11.99Q181.17 12.52 182.42 12.52L182.42 12.52L182.42 12.52Q183.62 12.52 184.39 12.03L184.39 12.03L184.39 12.03Q185.15 11.54 185.15 10.68L185.15 10.68L185.15 10.68Q185.15 9.94 184.53 9.51L184.53 9.51L184.53 9.51Q183.90 9.07 182.36 8.81L182.36 8.81L182.36 8.81Q181.06 8.58 180.31 8.26L180.31 8.26L180.31 8.26Q179.55 7.94 179.22 7.46L179.22 7.46L179.22 7.46Q178.89 6.99 178.89 6.27L178.89 6.27L178.89 6.27Q178.89 5.56 179.31 4.96L179.31 4.96L179.31 4.96Q179.72 4.35 180.48 4.00L180.48 4.00L180.48 4.00Q181.24 3.64 182.27 3.64L182.27 3.64ZM195.78 12.38L201.61 12.38L201.61 13.02L195.08 13.02L195.08 3.78L201.39 3.78L201.39 4.42L195.78 4.42L195.78 7.99L200.21 7.99L200.21 8.65L195.78 8.65L195.78 12.38ZM211.34 12.38L216.89 12.38L216.89 13.02L210.64 13.02L210.64 3.78L211.34 3.78L211.34 12.38ZM231.95 4.42L226.35 4.42L226.35 7.99L230.79 7.99L230.79 8.65L226.35 8.65L226.35 13.02L225.65 13.02L225.65 3.78L231.95 3.78L231.95 4.42ZM241.35 3.78L241.35 8.26L241.26 10.36L240.70 10.36L240.62 8.26L240.62 3.78L241.35 3.78ZM240.98 11.87L240.98 11.87Q241.26 11.87 241.44 12.05L241.44 12.05L241.44 12.05Q241.61 12.22 241.61 12.50L241.61 12.50L241.61 12.50Q241.61 12.78 241.44 12.96L241.44 12.96L241.44 12.96Q241.26 13.13 240.98 13.13L240.98 13.13L240.98 13.13Q240.70 13.13 240.53 12.96L240.53 12.96L240.53 12.96Q240.35 12.78 240.35 12.50L240.35 12.50L240.35 12.50Q240.35 12.22 240.53 12.05L240.53 12.05L240.53 12.05Q240.70 11.87 240.98 11.87L240.98 11.87Z"></path></g></svg>