<svg data-v-fde0c5aa="" xmlns="http://www.w3.org/2000/svg" viewBox="0 0 300 300" class="font"><!----><defs data-v-fde0c5aa=""><!----></defs><rect data-v-fde0c5aa="" fill="transparent" x="0" y="0" width="300px" height="300px" class="logo-background-square"></rect><defs data-v-fde0c5aa=""><linearGradient data-v-fde0c5aa="" gradientTransform="rotate(25)" id="cc12e3ce-d58e-40cc-8198-2787cc5ff18f" x1="0%" y1="0%" x2="100%" y2="0%"><stop data-v-fde0c5aa="" offset="0%" stop-color="#920DE9" stop-opacity="1"></stop><stop data-v-fde0c5aa="" offset="100%" stop-color="#1536F1" stop-opacity="1"></stop></linearGradient></defs><g data-v-fde0c5aa="" id="45ca8749-6287-4a7d-b5ef-b4e59b429c96" fill="url(#cc12e3ce-d58e-40cc-8198-2787cc5ff18f)" transform="matrix(2.4586498737335205,0,0,2.4586498737335205,37.91014753878281,127.62628627724527)"><path d="M1.09 14L1.09 14Q0.85 14 0.85 13.76L0.85 13.76L0.85 4.44L0.85 4.44Q0.85 4.20 1.09 4.20L1.09 4.20L4.52 4.20L4.52 4.20Q5.57 4.20 6.36 4.57L6.36 4.57L6.36 4.57Q7.15 4.94 7.59 5.61L7.59 5.61L7.59 5.61Q8.02 6.29 8.02 7.17L8.02 7.17L8.02 11.03L8.02 11.03Q8.02 11.91 7.59 12.59L7.59 12.59L7.59 12.59Q7.15 13.26 6.36 13.63L6.36 13.63L6.36 13.63Q5.57 14 4.52 14L4.52 14L1.09 14ZM2.83 12.22L2.83 12.22Q2.83 12.31 2.91 12.31L2.91 12.31L4.59 12.31L4.59 12.31Q5.24 12.31 5.63 11.87L5.63 11.87L5.63 11.87Q6.03 11.44 6.05 10.71L6.05 10.71L6.05 7.49L6.05 7.49Q6.05 6.76 5.65 6.33L5.65 6.33L5.65 6.33Q5.25 5.89 4.58 5.89L4.58 5.89L2.91 5.89L2.91 5.89Q2.83 5.89 2.83 5.98L2.83 5.98L2.83 12.22ZM16.31 5.66L16.31 5.66Q16.31 5.89 16.07 5.89L16.07 5.89L11.56 5.89L11.56 5.89Q11.48 5.89 11.48 5.98L11.48 5.98L11.48 8.12L11.48 8.12Q11.48 8.20 11.56 8.20L11.56 8.20L14.49 8.20L14.49 8.20Q14.73 8.20 14.73 8.44L14.73 8.44L14.73 9.66L14.73 9.66Q14.73 9.90 14.49 9.90L14.49 9.90L11.56 9.90L11.56 9.90Q11.48 9.90 11.48 9.98L11.48 9.98L11.48 12.22L11.48 12.22Q11.48 12.31 11.56 12.31L11.56 12.31L16.07 12.31L16.07 12.31Q16.31 12.31 16.31 12.54L16.31 12.54L16.31 13.76L16.31 13.76Q16.31 14 16.07 14L16.07 14L9.74 14L9.74 14Q9.51 14 9.51 13.76L9.51 13.76L9.51 4.44L9.51 4.44Q9.51 4.20 9.74 4.20L9.74 4.20L16.07 4.20L16.07 4.20Q16.31 4.20 16.31 4.44L16.31 4.44L16.31 5.66ZM23.51 8.88L23.51 8.88Q23.46 8.89 23.46 8.93L23.46 8.93L23.46 8.93Q23.46 8.96 23.51 8.99L23.51 8.99L23.51 8.99Q24.82 9.65 24.82 11.26L24.82 11.26L24.82 11.26Q24.82 12.61 23.90 13.31L23.90 13.31L23.90 13.31Q22.97 14 21.48 14L21.48 14L17.92 14L17.92 14Q17.68 14 17.68 13.76L17.68 13.76L17.68 4.44L17.68 4.44Q17.68 4.20 17.92 4.20L17.92 4.20L21.36 4.20L21.36 4.20Q24.68 4.20 24.68 6.89L24.68 6.89L24.68 6.89Q24.68 8.30 23.51 8.88L23.51 8.88ZM19.74 5.89L19.74 5.89Q19.66 5.89 19.66 5.98L19.66 5.98L19.66 8.13L19.66 8.13Q19.66 8.22 19.74 8.22L19.74 8.22L21.36 8.22L21.36 8.22Q22.02 8.22 22.39 7.91L22.39 7.91L22.39 7.91Q22.75 7.60 22.75 7.07L22.75 7.07L22.75 7.07Q22.75 6.52 22.39 6.21L22.39 6.21L22.39 6.21Q22.02 5.89 21.36 5.89L21.36 5.89L19.74 5.89ZM21.48 12.29L21.48 12.29Q22.12 12.29 22.48 11.96L22.48 11.96L22.48 11.96Q22.85 11.63 22.85 11.06L22.85 11.06L22.85 11.06Q22.85 10.49 22.48 10.16L22.48 10.16L22.48 10.16Q22.12 9.83 21.46 9.83L21.46 9.83L19.74 9.83L19.74 9.83Q19.66 9.83 19.66 9.91L19.66 9.91L19.66 12.21L19.66 12.21Q19.66 12.29 19.74 12.29L19.74 12.29L21.48 12.29ZM31.79 14L31.79 14Q31.61 14 31.51 13.82L31.51 13.82L29.79 10.01L29.79 10.01Q29.76 9.94 29.69 9.94L29.69 9.94L28.42 9.94L28.42 9.94Q28.34 9.94 28.34 10.02L28.34 10.02L28.34 13.76L28.34 13.76Q28.34 14 28.10 14L28.10 14L26.60 14L26.60 14Q26.36 14 26.36 13.76L26.36 13.76L26.36 4.42L26.36 4.42Q26.36 4.19 26.60 4.19L26.60 4.19L30.53 4.19L30.53 4.19Q31.43 4.19 32.11 4.56L32.11 4.56L32.11 4.56Q32.79 4.93 33.16 5.60L33.16 5.60L33.16 5.60Q33.53 6.27 33.53 7.14L33.53 7.14L33.53 7.14Q33.53 8.09 33.05 8.78L33.05 8.78L33.05 8.78Q32.58 9.46 31.74 9.74L31.74 9.74L31.74 9.74Q31.70 9.76 31.68 9.79L31.68 9.79L31.68 9.79Q31.67 9.83 31.70 9.86L31.70 9.86L33.54 13.72L33.54 13.72Q33.59 13.78 33.59 13.85L33.59 13.85L33.59 13.85Q33.59 13.92 33.53 13.96L33.53 13.96L33.53 13.96Q33.47 14 33.38 14L33.38 14L31.79 14ZM28.42 5.89L28.42 5.89Q28.34 5.89 28.34 5.98L28.34 5.98L28.34 8.33L28.34 8.33Q28.34 8.41 28.42 8.41L28.42 8.41L30.24 8.41L30.24 8.41Q30.83 8.41 31.20 8.07L31.20 8.07L31.20 8.07Q31.57 7.73 31.57 7.17L31.57 7.17L31.57 7.17Q31.57 6.61 31.20 6.25L31.20 6.25L31.20 6.25Q30.83 5.89 30.24 5.89L30.24 5.89L28.42 5.89ZM41.76 5.66L41.76 5.66Q41.76 5.89 41.52 5.89L41.52 5.89L37.02 5.89L37.02 5.89Q36.93 5.89 36.93 5.98L36.93 5.98L36.93 8.12L36.93 8.12Q36.93 8.20 37.02 8.20L37.02 8.20L39.94 8.20L39.94 8.20Q40.18 8.20 40.18 8.44L40.18 8.44L40.18 9.66L40.18 9.66Q40.18 9.90 39.94 9.90L39.94 9.90L37.02 9.90L37.02 9.90Q36.93 9.90 36.93 9.98L36.93 9.98L36.93 12.22L36.93 12.22Q36.93 12.31 37.02 12.31L37.02 12.31L41.52 12.31L41.52 12.31Q41.76 12.31 41.76 12.54L41.76 12.54L41.76 13.76L41.76 13.76Q41.76 14 41.52 14L41.52 14L35.20 14L35.20 14Q34.96 14 34.96 13.76L34.96 13.76L34.96 4.44L34.96 4.44Q34.96 4.20 35.20 4.20L35.20 4.20L41.52 4.20L41.52 4.20Q41.76 4.20 41.76 4.44L41.76 4.44L41.76 5.66ZM49.43 14L49.43 14Q49.24 14 49.17 13.80L49.17 13.80L48.78 12.50L48.78 12.50Q48.76 12.43 48.69 12.43L48.69 12.43L45.26 12.43L45.26 12.43Q45.19 12.43 45.18 12.50L45.18 12.50L44.79 13.80L44.79 13.80Q44.72 14 44.52 14L44.52 14L42.90 14L42.90 14Q42.77 14 42.71 13.92L42.71 13.92L42.71 13.92Q42.66 13.85 42.70 13.73L42.70 13.73L45.68 4.40L45.68 4.40Q45.75 4.20 45.95 4.20L45.95 4.20L48.01 4.20L48.01 4.20Q48.20 4.20 48.27 4.40L48.27 4.40L51.25 13.73L51.25 13.73Q51.27 13.76 51.27 13.82L51.27 13.82L51.27 13.82Q51.27 13.90 51.21 13.95L51.21 13.95L51.21 13.95Q51.16 14 51.06 14L51.06 14L49.43 14ZM45.67 10.81L45.67 10.81Q45.65 10.91 45.74 10.91L45.74 10.91L48.22 10.91L48.22 10.91Q48.30 10.91 48.29 10.81L48.29 10.81L47.03 6.54L47.03 6.54Q47.01 6.48 46.98 6.48L46.98 6.48L46.98 6.48Q46.94 6.48 46.91 6.54L46.91 6.54L45.67 10.81ZM55.97 14.11L55.97 14.11Q54.88 14.11 54.05 13.69L54.05 13.69L54.05 13.69Q53.23 13.26 52.78 12.49L52.78 12.49L52.78 12.49Q52.33 11.72 52.33 10.71L52.33 10.71L52.33 7.48L52.33 7.48Q52.33 6.47 52.78 5.70L52.78 5.70L52.78 5.70Q53.23 4.93 54.05 4.51L54.05 4.51L54.05 4.51Q54.88 4.09 55.97 4.09L55.97 4.09L55.97 4.09Q57.05 4.09 57.87 4.49L57.87 4.49L57.87 4.49Q58.69 4.89 59.14 5.62L59.14 5.62L59.14 5.62Q59.60 6.36 59.60 7.32L59.60 7.32L59.60 7.32Q59.60 7.45 59.37 7.48L59.37 7.48L57.88 7.57L57.82 7.57L57.82 7.57Q57.62 7.57 57.62 7.50L57.62 7.50L57.62 7.42L57.62 7.42Q57.62 6.68 57.17 6.23L57.17 6.23L57.17 6.23Q56.71 5.78 55.97 5.78L55.97 5.78L55.97 5.78Q55.22 5.78 54.76 6.23L54.76 6.23L54.76 6.23Q54.31 6.68 54.31 7.42L54.31 7.42L54.31 10.79L54.31 10.79Q54.31 11.52 54.76 11.97L54.76 11.97L54.76 11.97Q55.22 12.42 55.97 12.42L55.97 12.42L55.97 12.42Q56.71 12.42 57.17 11.97L57.17 11.97L57.17 11.97Q57.62 11.52 57.62 10.79L57.62 10.79L57.62 10.79Q57.62 10.72 57.69 10.68L57.69 10.68L57.69 10.68Q57.75 10.63 57.86 10.64L57.86 10.64L59.36 10.71L59.36 10.71Q59.60 10.74 59.60 10.78L59.60 10.78L59.60 10.85L59.60 10.85Q59.60 11.82 59.14 12.56L59.14 12.56L59.14 12.56Q58.69 13.30 57.87 13.71L57.87 13.71L57.87 13.71Q57.05 14.11 55.97 14.11L55.97 14.11ZM66.25 4.44L66.25 4.44Q66.25 4.20 66.49 4.20L66.49 4.20L67.98 4.20L67.98 4.20Q68.22 4.20 68.22 4.44L68.22 4.44L68.22 13.76L68.22 13.76Q68.22 14 67.98 14L67.98 14L66.49 14L66.49 14Q66.25 14 66.25 13.76L66.25 13.76L66.25 9.98L66.25 9.98Q66.25 9.90 66.16 9.90L66.16 9.90L63.10 9.90L63.10 9.90Q63.01 9.90 63.01 9.98L63.01 9.98L63.01 13.76L63.01 13.76Q63.01 14 62.78 14L62.78 14L61.28 14L61.28 14Q61.04 14 61.04 13.76L61.04 13.76L61.04 4.44L61.04 4.44Q61.04 4.20 61.28 4.20L61.28 4.20L62.78 4.20L62.78 4.20Q63.01 4.20 63.01 4.44L63.01 4.44L63.01 8.12L63.01 8.12Q63.01 8.20 63.10 8.20L63.10 8.20L66.16 8.20L66.16 8.20Q66.25 8.20 66.25 8.12L66.25 8.12L66.25 4.44ZM70.83 14.06L70.83 14.06Q70.28 14.06 69.92 13.70L69.92 13.70L69.92 13.70Q69.55 13.34 69.55 12.84L69.55 12.84L69.55 12.84Q69.55 12.35 69.94 11.99L69.94 11.99L69.94 11.99Q70.34 11.63 70.83 11.63L70.83 11.63L70.83 11.63Q71.34 11.63 71.74 11.99L71.74 11.99L71.74 11.99Q72.13 12.35 72.13 12.84L72.13 12.84L72.13 12.84Q72.13 13.34 71.75 13.70L71.75 13.70L71.75 13.70Q71.37 14.06 70.83 14.06L70.83 14.06ZM73.82 14L73.82 14Q73.58 14 73.58 13.76L73.58 13.76L73.58 4.44L73.58 4.44Q73.58 4.20 73.82 4.20L73.82 4.20L75.32 4.20L75.32 4.20Q75.50 4.20 75.60 4.35L75.60 4.35L77.63 7.63L77.63 7.63Q77.66 7.67 77.69 7.67L77.69 7.67L77.69 7.67Q77.73 7.67 77.74 7.63L77.74 7.63L79.80 4.35L79.80 4.35Q79.90 4.20 80.08 4.20L80.08 4.20L81.58 4.20L81.58 4.20Q81.82 4.20 81.82 4.44L81.82 4.44L81.82 13.76L81.82 13.76Q81.82 14 81.58 14L81.58 14L80.08 14L80.08 14Q79.84 14 79.84 13.76L79.84 13.76L79.84 7.70L79.84 7.70Q79.84 7.64 79.81 7.63L79.81 7.63L79.81 7.63Q79.77 7.62 79.74 7.67L79.74 7.67L78.33 9.98L78.33 9.98Q78.23 10.14 78.05 10.14L78.05 10.14L77.34 10.14L77.34 10.14Q77.15 10.14 77.06 9.98L77.06 9.98L75.66 7.67L75.66 7.67Q75.63 7.62 75.59 7.63L75.59 7.63L75.59 7.63Q75.56 7.64 75.56 7.70L75.56 7.70L75.56 13.76L75.56 13.76Q75.56 14 75.32 14L75.32 14L73.82 14ZM90.33 5.66L90.33 5.66Q90.33 5.89 90.09 5.89L90.09 5.89L85.58 5.89L85.58 5.89Q85.50 5.89 85.50 5.98L85.50 5.98L85.50 8.12L85.50 8.12Q85.50 8.20 85.58 8.20L85.58 8.20L88.51 8.20L88.51 8.20Q88.75 8.20 88.75 8.44L88.75 8.44L88.75 9.66L88.75 9.66Q88.75 9.90 88.51 9.90L88.51 9.90L85.58 9.90L85.58 9.90Q85.50 9.90 85.50 9.98L85.50 9.98L85.50 12.22L85.50 12.22Q85.50 12.31 85.58 12.31L85.58 12.31L90.09 12.31L90.09 12.31Q90.33 12.31 90.33 12.54L90.33 12.54L90.33 13.76L90.33 13.76Q90.33 14 90.09 14L90.09 14L83.76 14L83.76 14Q83.52 14 83.52 13.76L83.52 13.76L83.52 4.44L83.52 4.44Q83.52 4.20 83.76 4.20L83.76 4.20L90.09 4.20L90.09 4.20Q90.33 4.20 90.33 4.44L90.33 4.44L90.33 5.66Z"></path></g><!----><!----></svg>