<svg data-v-fde0c5aa="" xmlns="http://www.w3.org/2000/svg" viewBox="0 0 300 300" class="font"><!----><defs data-v-fde0c5aa=""><!----></defs><rect data-v-fde0c5aa="" fill="transparent" x="0" y="0" width="300px" height="300px" class="logo-background-square"></rect><defs data-v-fde0c5aa=""><linearGradient data-v-fde0c5aa="" gradientTransform="rotate(25)" id="70e0d2d8-9e7c-4007-bfb4-2566432b3f3d" x1="0%" y1="0%" x2="100%" y2="0%"><stop data-v-fde0c5aa="" offset="0%" stop-color="#920DE9" stop-opacity="1"></stop><stop data-v-fde0c5aa="" offset="100%" stop-color="#1536F1" stop-opacity="1"></stop></linearGradient></defs><g data-v-fde0c5aa="" id="4a7a60db-4ac6-40d1-a382-fc7a9da2bf22" fill="url(#70e0d2d8-9e7c-4007-bfb4-2566432b3f3d)" transform="matrix(3.2381515502929688,0,0,3.2381515502929688,38.21901660491131,120.53282113784893)"><path d="M0.81 14L0.81 14Q0.55 14 0.55 13.73L0.55 13.73L0.55 4.47L0.55 4.47Q0.55 4.20 0.81 4.20L0.81 4.20L4.35 4.20L4.35 4.20Q5.49 4.20 6.36 4.59L6.36 4.59L6.36 4.59Q7.24 4.98 7.71 5.70L7.71 5.70L7.71 5.70Q8.19 6.41 8.19 7.35L8.19 7.35L8.19 10.85L8.19 10.85Q8.19 11.79 7.71 12.50L7.71 12.50L7.71 12.50Q7.24 13.22 6.36 13.61L6.36 13.61L6.36 13.61Q5.49 14 4.35 14L4.35 14L0.81 14ZM3.18 11.63L3.18 11.63Q3.18 11.75 3.29 11.75L3.29 11.75L4.45 11.75L4.45 11.75Q4.93 11.75 5.24 11.38L5.24 11.38L5.24 11.38Q5.54 11.00 5.56 10.40L5.56 10.40L5.56 7.80L5.56 7.80Q5.56 7.20 5.25 6.83L5.25 6.83L5.25 6.83Q4.94 6.45 4.44 6.45L4.44 6.45L3.29 6.45L3.29 6.45Q3.18 6.45 3.18 6.57L3.18 6.57L3.18 11.63ZM16.30 6.19L16.30 6.19Q16.30 6.45 16.03 6.45L16.03 6.45L11.94 6.45L11.94 6.45Q11.83 6.45 11.83 6.57L11.83 6.57L11.83 7.80L11.83 7.80Q11.83 7.91 11.94 7.91L11.94 7.91L14.43 7.91L14.43 7.91Q14.70 7.91 14.70 8.18L14.70 8.18L14.70 9.88L14.70 9.88Q14.70 10.15 14.43 10.15L14.43 10.15L11.94 10.15L11.94 10.15Q11.83 10.15 11.83 10.26L11.83 10.26L11.83 11.63L11.83 11.63Q11.83 11.75 11.94 11.75L11.94 11.75L16.03 11.75L16.03 11.75Q16.30 11.75 16.30 12.01L16.30 12.01L16.30 13.73L16.30 13.73Q16.30 14 16.03 14L16.03 14L9.46 14L9.46 14Q9.20 14 9.20 13.73L9.20 13.73L9.20 4.47L9.20 4.47Q9.20 4.20 9.46 4.20L9.46 4.20L16.03 4.20L16.03 4.20Q16.30 4.20 16.30 4.47L16.30 4.47L16.30 6.19ZM23.62 8.88L23.62 8.88Q23.56 8.90 23.56 8.95L23.56 8.95L23.56 8.95Q23.56 8.99 23.62 9.02L23.62 9.02L23.62 9.02Q24.21 9.37 24.49 9.91L24.49 9.91L24.49 9.91Q24.78 10.44 24.78 11.20L24.78 11.20L24.78 11.20Q24.78 12.64 23.77 13.32L23.77 13.32L23.77 13.32Q22.76 14 21.15 14L21.15 14L17.44 14L17.44 14Q17.18 14 17.18 13.73L17.18 13.73L17.18 4.47L17.18 4.47Q17.18 4.20 17.44 4.20L17.44 4.20L21.03 4.20L21.03 4.20Q22.82 4.20 23.72 4.84L23.72 4.84L23.72 4.84Q24.63 5.47 24.63 6.97L24.63 6.97L24.63 6.97Q24.63 8.27 23.62 8.88L23.62 8.88ZM19.92 6.45L19.92 6.45Q19.81 6.45 19.81 6.57L19.81 6.57L19.81 7.88L19.81 7.88Q19.81 7.99 19.92 7.99L19.92 7.99L21.03 7.99L21.03 7.99Q22.05 7.99 22.05 7.22L22.05 7.22L22.05 7.22Q22.05 6.45 21.03 6.45L21.03 6.45L19.92 6.45ZM21.15 11.75L21.15 11.75Q22.15 11.75 22.15 10.92L22.15 10.92L22.15 10.92Q22.15 10.14 21.17 10.14L21.17 10.14L19.92 10.14L19.92 10.14Q19.81 10.14 19.81 10.25L19.81 10.25L19.81 11.63L19.81 11.63Q19.81 11.75 19.92 11.75L19.92 11.75L21.15 11.75ZM31.00 14L31.00 14Q30.77 14 30.69 13.80L30.69 13.80L29.18 10.32L29.18 10.32Q29.15 10.23 29.04 10.23L29.04 10.23L28.53 10.23L28.53 10.23Q28.42 10.23 28.42 10.35L28.42 10.35L28.42 13.73L28.42 13.73Q28.42 14 28.15 14L28.15 14L26.05 14L26.05 14Q25.79 14 25.79 13.73L25.79 13.73L25.79 4.47L25.79 4.47Q25.79 4.20 26.05 4.20L26.05 4.20L30.24 4.20L30.24 4.20Q31.19 4.20 31.91 4.59L31.91 4.59L31.91 4.59Q32.63 4.98 33.03 5.69L33.03 5.69L33.03 5.69Q33.43 6.40 33.43 7.32L33.43 7.32L33.43 7.32Q33.43 8.23 32.99 8.92L32.99 8.92L32.99 8.92Q32.55 9.60 31.77 9.94L31.77 9.94L31.77 9.94Q31.67 9.98 31.71 10.08L31.71 10.08L33.42 13.69L33.42 13.69Q33.45 13.75 33.45 13.83L33.45 13.83L33.45 13.83Q33.45 14 33.22 14L33.22 14L31.00 14ZM28.53 6.45L28.53 6.45Q28.42 6.45 28.42 6.57L28.42 6.57L28.42 8.12L28.42 8.12Q28.42 8.23 28.53 8.23L28.53 8.23L29.81 8.23L29.81 8.23Q30.25 8.23 30.53 7.99L30.53 7.99L30.53 7.99Q30.81 7.74 30.81 7.35L30.81 7.35L30.81 7.35Q30.81 6.94 30.53 6.70L30.53 6.70L30.53 6.70Q30.25 6.45 29.81 6.45L29.81 6.45L28.53 6.45ZM41.50 6.19L41.50 6.19Q41.50 6.45 41.23 6.45L41.23 6.45L37.14 6.45L37.14 6.45Q37.03 6.45 37.03 6.57L37.03 6.57L37.03 7.80L37.03 7.80Q37.03 7.91 37.14 7.91L37.14 7.91L39.63 7.91L39.63 7.91Q39.90 7.91 39.90 8.18L39.90 8.18L39.90 9.88L39.90 9.88Q39.90 10.15 39.63 10.15L39.63 10.15L37.14 10.15L37.14 10.15Q37.03 10.15 37.03 10.26L37.03 10.26L37.03 11.63L37.03 11.63Q37.03 11.75 37.14 11.75L37.14 11.75L41.23 11.75L41.23 11.75Q41.50 11.75 41.50 12.01L41.50 12.01L41.50 13.73L41.50 13.73Q41.50 14 41.23 14L41.23 14L34.66 14L34.66 14Q34.40 14 34.40 13.73L34.40 13.73L34.40 4.47L34.40 4.47Q34.40 4.20 34.66 4.20L34.66 4.20L41.23 4.20L41.23 4.20Q41.50 4.20 41.50 4.47L41.50 4.47L41.50 6.19ZM48.99 14L48.99 14Q48.75 14 48.69 13.78L48.69 13.78L48.41 12.77L48.41 12.77Q48.38 12.67 48.29 12.67L48.29 12.67L45.37 12.67L45.37 12.67Q45.28 12.67 45.25 12.77L45.25 12.77L44.97 13.78L44.97 13.78Q44.91 14 44.67 14L44.67 14L42.41 14L42.41 14Q42.27 14 42.20 13.92L42.20 13.92L42.20 13.92Q42.14 13.83 42.18 13.69L42.18 13.69L45.09 4.42L45.09 4.42Q45.16 4.20 45.39 4.20L45.39 4.20L48.27 4.20L48.27 4.20Q48.50 4.20 48.57 4.42L48.57 4.42L51.48 13.69L51.48 13.69Q51.49 13.73 51.49 13.79L51.49 13.79L51.49 13.79Q51.49 14 51.25 14L51.25 14L48.99 14ZM45.86 10.53L45.86 10.56L45.86 10.56Q45.86 10.65 45.96 10.65L45.96 10.65L47.70 10.65L47.70 10.65Q47.75 10.65 47.78 10.62L47.78 10.62L47.78 10.62Q47.81 10.58 47.80 10.53L47.80 10.53L46.90 7.29L46.90 7.29Q46.89 7.22 46.84 7.22L46.84 7.22L46.84 7.22Q46.79 7.22 46.76 7.29L46.76 7.29L45.86 10.53ZM56.11 14.11L56.11 14.11Q54.96 14.11 54.09 13.66L54.09 13.66L54.09 13.66Q53.21 13.22 52.73 12.40L52.73 12.40L52.73 12.40Q52.25 11.58 52.25 10.50L52.25 10.50L52.25 7.67L52.25 7.67Q52.25 6.61 52.73 5.80L52.73 5.80L52.73 5.80Q53.21 4.98 54.09 4.54L54.09 4.54L54.09 4.54Q54.96 4.09 56.11 4.09L56.11 4.09L56.11 4.09Q57.26 4.09 58.14 4.51L58.14 4.51L58.14 4.51Q59.01 4.93 59.49 5.69L59.49 5.69L59.49 5.69Q59.98 6.45 59.98 7.46L59.98 7.46L59.98 7.46Q59.98 7.59 59.72 7.62L59.72 7.62L57.62 7.76L57.55 7.76L57.55 7.76Q57.34 7.76 57.34 7.69L57.34 7.69L57.34 7.60L57.34 7.60Q57.34 7.03 57.01 6.68L57.01 6.68L57.01 6.68Q56.67 6.34 56.11 6.34L56.11 6.34L56.11 6.34Q55.55 6.34 55.22 6.68L55.22 6.68L55.22 6.68Q54.88 7.03 54.88 7.60L54.88 7.60L54.88 10.61L54.88 10.61Q54.88 11.17 55.22 11.52L55.22 11.52L55.22 11.52Q55.55 11.86 56.11 11.86L56.11 11.86L56.11 11.86Q56.67 11.86 57.01 11.52L57.01 11.52L57.01 11.52Q57.34 11.17 57.34 10.61L57.34 10.61L57.34 10.61Q57.34 10.54 57.42 10.49L57.42 10.49L57.42 10.49Q57.50 10.44 57.62 10.46L57.62 10.46L59.72 10.57L59.72 10.57Q59.98 10.58 59.98 10.64L59.98 10.64L59.98 10.71L59.98 10.71Q59.98 11.72 59.49 12.49L59.49 12.49L59.49 12.49Q59.01 13.26 58.14 13.69L58.14 13.69L58.14 13.69Q57.26 14.11 56.11 14.11L56.11 14.11ZM65.86 4.47L65.86 4.47Q65.86 4.20 66.12 4.20L66.12 4.20L68.22 4.20L68.22 4.20Q68.49 4.20 68.49 4.47L68.49 4.47L68.49 13.73L68.49 13.73Q68.49 14 68.22 14L68.22 14L66.12 14L66.12 14Q65.86 14 65.86 13.73L65.86 13.73L65.86 10.28L65.86 10.28Q65.86 10.16 65.74 10.16L65.74 10.16L63.64 10.16L63.64 10.16Q63.53 10.16 63.53 10.28L63.53 10.28L63.53 13.73L63.53 13.73Q63.53 14 63.27 14L63.27 14L61.17 14L61.17 14Q60.90 14 60.90 13.73L60.90 13.73L60.90 4.47L60.90 4.47Q60.90 4.20 61.17 4.20L61.17 4.20L63.27 4.20L63.27 4.20Q63.53 4.20 63.53 4.47L63.53 4.47L63.53 7.80L63.53 7.80Q63.53 7.91 63.64 7.91L63.64 7.91L65.74 7.91L65.74 7.91Q65.86 7.91 65.86 7.80L65.86 7.80L65.86 4.47Z"></path></g><!----><!----></svg>